<svg width="52" height="52" viewBox="0 0 52 52" fill="none" xmlns="http://www.w3.org/2000/svg"><path d="M13.258 36.39c-1.303.192-3.448.547-4.875-1.072-1.427-1.618-2.66-5.528-3.203-9.021-.8-5.15-.006-9.49 2.234-12.22 1.32-1.607 3.053-2.538 5.011-2.687 1.677-.129 4.183.527 6.602 4.387 1.515 2.418 2.668 5.63 3.162 8.812.598 3.841 1.18 7.94-.857 9.41-1.148.83-1.973 1.117-3.922 1.581a46.024 46.024 0 0 1-4.152.81Zm-2.318 3.305L22 37.414c.934-.193 1.683.32 2.03 1.86 1.14 5.054-.493 11.101-5.608 11.101-4.843 0-8.07-5.52-8.598-8.489-.24-1.345.103-1.983 1.116-2.191Zm23.651-13.864c-1.949-.462-2.774-.751-3.922-1.58-2.037-1.47-1.455-5.57-.857-9.41.494-3.183 1.647-6.4 3.162-8.813 2.417-3.86 4.923-4.516 6.602-4.387 1.956.15 3.69 1.079 5.01 2.687 2.242 2.73 3.037 7.07 2.234 12.219-.543 3.493-1.773 7.39-3.208 9.021-1.435 1.633-3.568 1.264-4.875 1.073a45.997 45.997 0 0 1-4.146-.81Zm6.469 4.114L30 27.664c-.934-.193-1.683.32-2.03 1.86-1.14 5.054.494 11.101 5.609 11.101 4.843 0 8.07-5.52 8.598-8.489.24-1.345-.104-1.983-1.117-2.191Z" fill="#000"/></svg>