<svg width="34.446" height="60.185" fill="none" xmlns="http://www.w3.org/2000/svg">
    <path d="M0 0h6.004v31.885c0 3.483.984 6.304 2.951 8.463 1.968 2.16 4.523 3.24 7.666 3.24 3.189 0 5.778-1.08 7.768-3.24 1.99-2.16 2.985-5.003 2.985-8.53 0-3.37-1.023-6.118-3.07-8.243-2.046-2.126-4.675-3.189-7.886-3.189a12.696 12.696 0 0 0-4.274.747c-1.403.497-2.782 1.266-4.139 2.306v-6.41a16.94 16.94 0 0 1 4.291-1.714 19.583 19.583 0 0 1 4.732-.56c1.6.003 3.19.249 4.715.73 1.51.462 2.94 1.154 4.24 2.052 2.42 1.673 4.269 3.742 5.546 6.207 1.278 2.465 1.917 5.179 1.917 8.141 0 5.02-1.577 9.159-4.732 12.415-3.155 3.257-7.14 4.885-11.957 4.885-3.211 0-6.151-.808-8.82-2.425a15.883 15.883 0 0 1-6.105-6.666A14.548 14.548 0 0 1 .424 35.99C.141 34.497 0 32.259 0 29.274V0Z" fill="#000"/>
</svg>
