<svg width="70.797" height="39.084" fill="none" xmlns="http://www.w3.org/2000/svg"><defs><linearGradient id="a"><stop offset="0%" style="stop-color:#df643a;stop-opacity:1"/><stop offset="100%" style="stop-color:#e99841;stop-opacity:1"/></linearGradient></defs><path d="M70.796 19.417c.036 10.756-8.658 19.505-19.417 19.54A19.44 19.44 0 0 1 36.067 31.6a20.187 20.187 0 0 0 3.519-8.157 12.38 12.38 0 1 0-.034-7.82 12.224 12.224 0 0 0-.602 3.348 11.53 11.53 0 0 0 .004 1.134v.006a19.378 19.378 0 0 1-4.118 11.48 19.44 19.44 0 0 1-15.293 7.494C8.785 39.12.036 30.427 0 19.67-.035 8.911 8.66.162 19.417.126a19.447 19.447 0 0 1 15.323 7.37 20.303 20.303 0 0 0-3.527 8.158 12.38 12.38 0 1 0 .03 7.808 12.25 12.25 0 0 0 .613-3.895 12.4 12.4 0 0 0-.013-.546 19.376 19.376 0 0 1 4.115-11.526A19.449 19.449 0 0 1 51.254 0C62.012-.035 70.76 8.657 70.796 19.417Z" fill="url(#a)"/></svg>