<svg width="35.1" height="35.52" fill="none" xmlns="http://www.w3.org/2000/svg"><defs><linearGradient id="a"><stop offset="0%" style="stop-color:#df643a;stop-opacity:1"/><stop offset="100%" style="stop-color:#e99841;stop-opacity:1"/></linearGradient></defs><path d="M17.55 35.52c-7.929 0-14.897-5.4-16.946-13.134A17.934 17.934 0 0 1 5.14 5.203a17.402 17.402 0 0 1 25.908 1.215 17.91 17.91 0 0 1-1.09 23.903 17.333 17.333 0 0 1-12.41 5.2Zm-.544-30.247c-3.61 0-8.433 1.283-10.914 7.395-.014.037-.324.895.044 1.432.203.297.575.448 1.104.449.128 0 .255-.009.381-.024 1.095-.124 2.108-.706 2.853-1.638.89-1.108 2.912-2.968 6.455-2.968.855.006 1.708.103 2.543.29.173.037.349.056.525.056 1.08 0 2.004-.677 2.245-1.647.025-.101.044-.204.056-.308.14-1.263-.796-2.459-2.13-2.724a16.61 16.61 0 0 0-3.162-.313Z" fill="url(#a)"/></svg>