<svg width="52" height="20.313" fill="none" xmlns="http://www.w3.org/2000/svg"><path d="M48.953 0H3.047A3.047 3.047 0 0 0 0 3.047v14.219a3.047 3.047 0 0 0 3.047 3.047h45.906A3.047 3.047 0 0 0 52 17.265V3.046A3.047 3.047 0 0 0 48.953 0ZM14.456 16.115a1.266 1.266 0 0 1-1.795.033l-3.673-3.544v2.63a1.27 1.27 0 0 1-2.539 0V5.078a1.27 1.27 0 0 1 2.54 0v2.258l3.334-3.065a1.27 1.27 0 1 1 1.718 1.87L9.895 9.95l4.53 4.37a1.27 1.27 0 0 1 .031 1.794Zm11.164-1.499c-.168.2-.35.388-.54.558-.977.87-2.233 1.33-3.632 1.33a6.355 6.355 0 0 1-6.348-6.348c0-3.5 2.848-6.348 6.348-6.348 1.272 0 2.5.375 3.55 1.085a1.27 1.27 0 1 1-1.422 2.104 3.787 3.787 0 0 0-2.128-.65 3.813 3.813 0 0 0-3.809 3.809c0 2.1 1.709 3.809 3.809 3.809.777 0 1.431-.232 1.943-.687.1-.089.195-.187.283-.293a1.27 1.27 0 1 1 1.946 1.631Zm11.261 1.806a1.267 1.267 0 0 1-1.636-.74l-.63-1.672h-4.376l-.638 1.676a1.27 1.27 0 0 1-2.373-.904L31.042 4.77l.011-.028a1.495 1.495 0 0 1 1.386-.933h.002a1.494 1.494 0 0 1 1.401.964l3.779 10.014a1.27 1.27 0 0 1-.74 1.636Zm7.407.073c-1.153.006-1.942.01-2.486.01-1.132 0-1.201-.013-1.292-.028a1.27 1.27 0 0 1-1.055-1.251V5.078a1.27 1.27 0 0 1 2.54 0v8.886c.658 0 1.496-.004 2.279-.008h.007a1.27 1.27 0 0 1 .007 2.54Z" fill="#000"/></svg>